<svg id="visual" viewBox="0 0 800 45" width="800" height="45" xmlns="http://www.w3.org/2000/svg" xmlns:xlink="http://www.w3.org/1999/xlink" version="1.1"><rect x="0" y="0" width="800" height="45" fill="#4D4B4B"></rect><path d="M0 12L14.8 14.8C29.7 17.7 59.3 23.3 89 24.8C118.7 26.3 148.3 23.7 178 22C207.7 20.3 237.3 19.7 267 20.3C296.7 21 326.3 23 355.8 24.2C385.3 25.3 414.7 25.7 444.2 24.2C473.7 22.7 503.3 19.3 533 18.2C562.7 17 592.3 18 622 18.5C651.7 19 681.3 19 711 19.3C740.7 19.7 770.3 20.3 785.2 20.7L800 21L800 46L785.2 46C770.3 46 740.7 46 711 46C681.3 46 651.7 46 622 46C592.3 46 562.7 46 533 46C503.3 46 473.7 46 444.2 46C414.7 46 385.3 46 355.8 46C326.3 46 296.7 46 267 46C237.3 46 207.7 46 178 46C148.3 46 118.7 46 89 46C59.3 46 29.7 46 14.8 46L0 46Z" fill="#ffc209"></path></svg>