<svg id="visual" viewBox="0 0 800 45" width="800" height="45" xmlns="http://www.w3.org/2000/svg" xmlns:xlink="http://www.w3.org/1999/xlink" version="1.1"><path d="M0 5L13.3 5.7C26.7 6.3 53.3 7.7 80 7.8C106.7 8 133.3 7 160 6.7C186.7 6.3 213.3 6.7 240 8.7C266.7 10.7 293.3 14.3 320 15C346.7 15.7 373.3 13.3 400 12.2C426.7 11 453.3 11 480 12.3C506.7 13.7 533.3 16.3 560 16.8C586.7 17.3 613.3 15.7 640 15.2C666.7 14.7 693.3 15.3 720 15.5C746.7 15.7 773.3 15.3 786.7 15.2L800 15L800 0L786.7 0C773.3 0 746.7 0 720 0C693.3 0 666.7 0 640 0C613.3 0 586.7 0 560 0C533.3 0 506.7 0 480 0C453.3 0 426.7 0 400 0C373.3 0 346.7 0 320 0C293.3 0 266.7 0 240 0C213.3 0 186.7 0 160 0C133.3 0 106.7 0 80 0C53.3 0 26.7 0 13.3 0L0 0Z" fill="#2d2d2d"></path><path d="M0 28L13.3 30C26.7 32 53.3 36 80 33.7C106.7 31.3 133.3 22.7 160 19.8C186.7 17 213.3 20 240 22.7C266.7 25.3 293.3 27.7 320 29.2C346.7 30.7 373.3 31.3 400 32.3C426.7 33.3 453.3 34.7 480 34.5C506.7 34.3 533.3 32.7 560 31.7C586.7 30.7 613.3 30.3 640 29.2C666.7 28 693.3 26 720 27.8C746.7 29.7 773.3 35.3 786.7 38.2L800 41L800 13L786.7 13.2C773.3 13.3 746.7 13.7 720 13.5C693.3 13.3 666.7 12.7 640 13.2C613.3 13.7 586.7 15.3 560 14.8C533.3 14.3 506.7 11.7 480 10.3C453.3 9 426.7 9 400 10.2C373.3 11.3 346.7 13.7 320 13C293.3 12.3 266.7 8.7 240 6.7C213.3 4.7 186.7 4.3 160 4.7C133.3 5 106.7 6 80 5.8C53.3 5.7 26.7 4.3 13.3 3.7L0 3Z" fill="#3d3c3c"></path><path d="M0 46L13.3 46C26.7 46 53.3 46 80 46C106.7 46 133.3 46 160 46C186.7 46 213.3 46 240 46C266.7 46 293.3 46 320 46C346.7 46 373.3 46 400 46C426.7 46 453.3 46 480 46C506.7 46 533.3 46 560 46C586.7 46 613.3 46 640 46C666.7 46 693.3 46 720 46C746.7 46 773.3 46 786.7 46L800 46L800 39L786.7 36.2C773.3 33.3 746.7 27.7 720 25.8C693.3 24 666.7 26 640 27.2C613.3 28.3 586.7 28.7 560 29.7C533.3 30.7 506.7 32.3 480 32.5C453.3 32.7 426.7 31.3 400 30.3C373.3 29.3 346.7 28.7 320 27.2C293.3 25.7 266.7 23.3 240 20.7C213.3 18 186.7 15 160 17.8C133.3 20.7 106.7 29.3 80 31.7C53.3 34 26.7 30 13.3 28L0 26Z" fill="#4d4b4b"></path></svg>