<svg id="visual" viewBox="0 0 800 45" width="800" height="45" xmlns="http://www.w3.org/2000/svg" xmlns:xlink="http://www.w3.org/1999/xlink" version="1.1"><path d="M0 19L13.3 18.7C26.7 18.3 53.3 17.7 80 16.7C106.7 15.7 133.3 14.3 160 15.2C186.7 16 213.3 19 240 18.7C266.7 18.3 293.3 14.7 320 14.3C346.7 14 373.3 17 400 18.8C426.7 20.7 453.3 21.3 480 22C506.7 22.7 533.3 23.3 560 23.5C586.7 23.7 613.3 23.3 640 23.3C666.7 23.3 693.3 23.7 720 21.3C746.7 19 773.3 14 786.7 11.5L800 9L800 0L786.7 0C773.3 0 746.7 0 720 0C693.3 0 666.7 0 640 0C613.3 0 586.7 0 560 0C533.3 0 506.7 0 480 0C453.3 0 426.7 0 400 0C373.3 0 346.7 0 320 0C293.3 0 266.7 0 240 0C213.3 0 186.7 0 160 0C133.3 0 106.7 0 80 0C53.3 0 26.7 0 13.3 0L0 0Z" fill="#4d4b4b"></path><path d="M0 33L13.3 34.5C26.7 36 53.3 39 80 40.2C106.7 41.3 133.3 40.7 160 39C186.7 37.3 213.3 34.7 240 33.8C266.7 33 293.3 34 320 34C346.7 34 373.3 33 400 32.2C426.7 31.3 453.3 30.7 480 31.8C506.7 33 533.3 36 560 35.7C586.7 35.3 613.3 31.7 640 31.3C666.7 31 693.3 34 720 35.5C746.7 37 773.3 37 786.7 37L800 37L800 7L786.7 9.5C773.3 12 746.7 17 720 19.3C693.3 21.7 666.7 21.3 640 21.3C613.3 21.3 586.7 21.7 560 21.5C533.3 21.3 506.7 20.7 480 20C453.3 19.3 426.7 18.7 400 16.8C373.3 15 346.7 12 320 12.3C293.3 12.7 266.7 16.3 240 16.7C213.3 17 186.7 14 160 13.2C133.3 12.3 106.7 13.7 80 14.7C53.3 15.7 26.7 16.3 13.3 16.7L0 17Z" fill="#3d3c3c"></path><path d="M0 46L13.3 46C26.7 46 53.3 46 80 46C106.7 46 133.3 46 160 46C186.7 46 213.3 46 240 46C266.7 46 293.3 46 320 46C346.7 46 373.3 46 400 46C426.7 46 453.3 46 480 46C506.7 46 533.3 46 560 46C586.7 46 613.3 46 640 46C666.7 46 693.3 46 720 46C746.7 46 773.3 46 786.7 46L800 46L800 35L786.7 35C773.3 35 746.7 35 720 33.5C693.3 32 666.7 29 640 29.3C613.3 29.7 586.7 33.3 560 33.7C533.3 34 506.7 31 480 29.8C453.3 28.7 426.7 29.3 400 30.2C373.3 31 346.7 32 320 32C293.3 32 266.7 31 240 31.8C213.3 32.7 186.7 35.3 160 37C133.3 38.7 106.7 39.3 80 38.2C53.3 37 26.7 34 13.3 32.5L0 31Z" fill="#2d2d2d"></path></svg>