<svg id="visual" viewBox="0 0 900 50" width="900" height="50" xmlns="http://www.w3.org/2000/svg" xmlns:xlink="http://www.w3.org/1999/xlink" version="1.1"><rect x="0" y="0" width="900" height="50" fill="#2D2D2D"></rect><path d="M0 23L16.7 22.5C33.3 22 66.7 21 100 18.8C133.3 16.7 166.7 13.3 200 13.7C233.3 14 266.7 18 300 19C333.3 20 366.7 18 400 18C433.3 18 466.7 20 500 21.7C533.3 23.3 566.7 24.7 600 23C633.3 21.3 666.7 16.7 700 16.7C733.3 16.7 766.7 21.3 800 20.7C833.3 20 866.7 14 883.3 11L900 8L900 51L883.3 51C866.7 51 833.3 51 800 51C766.7 51 733.3 51 700 51C666.7 51 633.3 51 600 51C566.7 51 533.3 51 500 51C466.7 51 433.3 51 400 51C366.7 51 333.3 51 300 51C266.7 51 233.3 51 200 51C166.7 51 133.3 51 100 51C66.7 51 33.3 51 16.7 51L0 51Z" fill="#"></path><path d="M0 23L16.7 25C33.3 27 66.7 31 100 33.5C133.3 36 166.7 37 200 36.8C233.3 36.7 266.7 35.3 300 34.5C333.3 33.7 366.7 33.3 400 32.3C433.3 31.3 466.7 29.7 500 30.8C533.3 32 566.7 36 600 35.2C633.3 34.3 666.7 28.7 700 27.2C733.3 25.7 766.7 28.3 800 30C833.3 31.7 866.7 32.3 883.3 32.7L900 33L900 51L883.3 51C866.7 51 833.3 51 800 51C766.7 51 733.3 51 700 51C666.7 51 633.3 51 600 51C566.7 51 533.3 51 500 51C466.7 51 433.3 51 400 51C366.7 51 333.3 51 300 51C266.7 51 233.3 51 200 51C166.7 51 133.3 51 100 51C66.7 51 33.3 51 16.7 51L0 51Z" fill="#ffc309"></path></svg>