<svg id="visual" viewBox="0 0 800 50" width="800" height="50" xmlns="http://www.w3.org/2000/svg" xmlns:xlink="http://www.w3.org/1999/xlink" version="1.1"><rect x="0" y="0" width="800" height="50" fill="#679bf1"></rect><path d="M0 18L19 21C38 24 76 30 114.2 33C152.3 36 190.7 36 228.8 33.2C267 30.3 305 24.7 343 22.3C381 20 419 21 457 22.5C495 24 533 26 571.2 27C609.3 28 647.7 28 685.8 26C724 24 762 20 781 18L800 16L800 51L781 51C762 51 724 51 685.8 51C647.7 51 609.3 51 571.2 51C533 51 495 51 457 51C419 51 381 51 343 51C305 51 267 51 228.8 51C190.7 51 152.3 51 114.2 51C76 51 38 51 19 51L0 51Z" fill="#2D2D2D" stroke-linecap="round" stroke-linejoin="miter"></path></svg>