<svg id="visual" viewBox="0 0 800 50" width="800" height="45" xmlns="http://www.w3.org/2000/svg" xmlns:xlink="http://www.w3.org/1999/xlink" version="1.1"><rect x="0" y="0" width="800" height="50" fill="#ffc309"></rect><path d="M0 22L22.2 22.7C44.3 23.3 88.7 24.7 133.2 23.2C177.7 21.7 222.3 17.3 266.8 17.5C311.3 17.7 355.7 22.3 400 22.8C444.3 23.3 488.7 19.7 533.2 18.7C577.7 17.7 622.3 19.3 666.8 21.2C711.3 23 755.7 25 777.8 26L800 27L800 51L777.8 51C755.7 51 711.3 51 666.8 51C622.3 51 577.7 51 533.2 51C488.7 51 444.3 51 400 51C355.7 51 311.3 51 266.8 51C222.3 51 177.7 51 133.2 51C88.7 51 44.3 51 22.2 51L0 51Z" fill="#c59700"></path><path d="M0 24L22.2 25C44.3 26 88.7 28 133.2 29.2C177.7 30.3 222.3 30.7 266.8 29.8C311.3 29 355.7 27 400 26.7C444.3 26.3 488.7 27.7 533.2 30C577.7 32.3 622.3 35.7 666.8 37.2C711.3 38.7 755.7 38.3 777.8 38.2L800 38L800 51L777.8 51C755.7 51 711.3 51 666.8 51C622.3 51 577.7 51 533.2 51C488.7 51 444.3 51 400 51C355.7 51 311.3 51 266.8 51C222.3 51 177.7 51 133.2 51C88.7 51 44.3 51 22.2 51L0 51Z" fill="#2D2D2D"></path></svg>      