<svg id="visual" viewBox="0 0 800 45" width="800" height="45" xmlns="http://www.w3.org/2000/svg" xmlns:xlink="http://www.w3.org/1999/xlink" version="1.1"><rect x="0" y="0" width="800" height="45" fill="#fcc309"></rect><path d="M0 37L8.8 34.8C17.7 32.7 35.3 28.3 53.2 26.2C71 24 89 24 106.8 24.3C124.7 24.7 142.3 25.3 160 27.2C177.7 29 195.3 32 213.2 31.7C231 31.3 249 27.7 266.8 27.2C284.7 26.7 302.3 29.3 320 31.3C337.7 33.3 355.3 34.7 373.2 32.8C391 31 409 26 426.8 23.8C444.7 21.7 462.3 22.3 480 24.8C497.7 27.3 515.3 31.7 533.2 33C551 34.3 569 32.7 586.8 33C604.7 33.3 622.3 35.7 640 36C657.7 36.3 675.3 34.7 693.2 33.2C711 31.7 729 30.3 746.8 28.5C764.7 26.7 782.3 24.3 791.2 23.2L800 22L800 0L791.2 0C782.3 0 764.7 0 746.8 0C729 0 711 0 693.2 0C675.3 0 657.7 0 640 0C622.3 0 604.7 0 586.8 0C569 0 551 0 533.2 0C515.3 0 497.7 0 480 0C462.3 0 444.7 0 426.8 0C409 0 391 0 373.2 0C355.3 0 337.7 0 320 0C302.3 0 284.7 0 266.8 0C249 0 231 0 213.2 0C195.3 0 177.7 0 160 0C142.3 0 124.7 0 106.8 0C89 0 71 0 53.2 0C35.3 0 17.7 0 8.8 0L0 0Z" fill="#4d4b4b"></path><path d="M0 8L8.8 7.5C17.7 7 35.3 6 53.2 5.5C71 5 89 5 106.8 5.3C124.7 5.7 142.3 6.3 160 9.2C177.7 12 195.3 17 213.2 18C231 19 249 16 266.8 16C284.7 16 302.3 19 320 17.7C337.7 16.3 355.3 10.7 373.2 7.7C391 4.7 409 4.3 426.8 5.3C444.7 6.3 462.3 8.7 480 9.2C497.7 9.7 515.3 8.3 533.2 7.3C551 6.3 569 5.7 586.8 8.2C604.7 10.7 622.3 16.3 640 16.7C657.7 17 675.3 12 693.2 10C711 8 729 9 746.8 9.7C764.7 10.3 782.3 10.7 791.2 10.8L800 11L800 0L791.2 0C782.3 0 764.7 0 746.8 0C729 0 711 0 693.2 0C675.3 0 657.7 0 640 0C622.3 0 604.7 0 586.8 0C569 0 551 0 533.2 0C515.3 0 497.7 0 480 0C462.3 0 444.7 0 426.8 0C409 0 391 0 373.2 0C355.3 0 337.7 0 320 0C302.3 0 284.7 0 266.8 0C249 0 231 0 213.2 0C195.3 0 177.7 0 160 0C142.3 0 124.7 0 106.8 0C89 0 71 0 53.2 0C35.3 0 17.7 0 8.8 0L0 0Z" fill="#2d2d2d"></path></svg>