<svg id="visual" viewBox="0 0 900 50" width="900" height="50" xmlns="http://www.w3.org/2000/svg" xmlns:xlink="http://www.w3.org/1999/xlink" version="1.1"><rect x="0" y="0" width="900" height="50" fill="#2D2D2D"></rect><path d="M0 30L15 28C30 26 60 22 90 18.2C120 14.3 150 10.7 180 11.8C210 13 240 19 270 19.2C300 19.3 330 13.7 360 11.3C390 9 420 10 450 11.7C480 13.3 510 15.7 540 15.8C570 16 600 14 630 14.8C660 15.7 690 19.3 720 21C750 22.7 780 22.3 810 22.2C840 22 870 22 885 22L900 22L900 51L885 51C870 51 840 51 810 51C780 51 750 51 720 51C690 51 660 51 630 51C600 51 570 51 540 51C510 51 480 51 450 51C420 51 390 51 360 51C330 51 300 51 270 51C240 51 210 51 180 51C150 51 120 51 90 51C60 51 30 51 15 51L0 51Z" fill="#4D4B4B"></path><path d="M0 34L15 35.2C30 36.3 60 38.7 90 36.8C120 35 150 29 180 27.7C210 26.3 240 29.7 270 31.3C300 33 330 33 360 33.7C390 34.3 420 35.7 450 34.7C480 33.7 510 30.3 540 29.5C570 28.7 600 30.3 630 31.2C660 32 690 32 720 31C750 30 780 28 810 28.3C840 28.7 870 31.3 885 32.7L900 34L900 51L885 51C870 51 840 51 810 51C780 51 750 51 720 51C690 51 660 51 630 51C600 51 570 51 540 51C510 51 480 51 450 51C420 51 390 51 360 51C330 51 300 51 270 51C240 51 210 51 180 51C150 51 120 51 90 51C60 51 30 51 15 51L0 51Z" fill="#ffc309"></path></svg>