<svg id="visual" viewBox="0 0 800 100" width="800" height="100" xmlns="http://www.w3.org/2000/svg" xmlns:xlink="http://www.w3.org/1999/xlink" version="1.1"><rect x="0" y="0" width="800" height="100" fill="#ffc309"></rect><path d="M0 81L22.2 77.7C44.3 74.3 88.7 67.7 133.2 59.7C177.7 51.7 222.3 42.3 266.8 45.5C311.3 48.7 355.7 64.3 400 64.7C444.3 65 488.7 50 533.2 40.7C577.7 31.3 622.3 27.7 666.8 26.8C711.3 26 755.7 28 777.8 29L800 30L800 0L777.8 0C755.7 0 711.3 0 666.8 0C622.3 0 577.7 0 533.2 0C488.7 0 444.3 0 400 0C355.7 0 311.3 0 266.8 0C222.3 0 177.7 0 133.2 0C88.7 0 44.3 0 22.2 0L0 0Z" fill="#2D2D2D" stroke-linecap="round" stroke-linejoin="miter"></path></svg>